<?xml version="1.0" encoding="utf-8"?>
<!-- Generator: Adobe Illustrator 27.0.1, SVG Export Plug-In . SVG Version: 6.00 Build 0)  -->
<svg version="1.1" id="Layer_1" xmlns="http://www.w3.org/2000/svg" xmlns:xlink="http://www.w3.org/1999/xlink" x="0px" y="0px"
	 viewBox="0 0 1500 1500" style="enable-background:new 0 0 1500 1500;" xml:space="preserve">
<style type="text/css">
	.st0{fill:url(#path1454_00000170280583538867936140000014258257745905296570_);}
	.st1{fill:url(#path1456_00000138563414265004494680000012649184462655278502_);}
	.st2{fill:url(#path1458_00000101086214533788550140000003423090185922557348_);}
	.st3{fill:#A5B9E0;}
	.st4{fill:url(#path1462_00000169533166445731534040000015985450609307460992_);}
	.st5{fill:#DD6B39;}
	.st6{fill:#3E6B59;}
</style>
<g id="Layer_1-2_00000034081968089108382350000002370679074588621714_">
	<g id="layer1_00000094612460516060529120000004618910854907448756_">
		
			<linearGradient id="path1454_00000049916789860902896620000005927148790195379625_" gradientUnits="userSpaceOnUse" x1="-876.4114" y1="7758.3242" x2="-1164.6923" y2="6961.8823" gradientTransform="matrix(0.94 0 0 -0.94 1848.7266 7420.7485)">
			<stop  offset="0" style="stop-color:#143629"/>
			<stop  offset="1" style="stop-color:#3E6B59"/>
		</linearGradient>
		
			<path id="path1454_00000023990913787217329470000009847397383151651736_" style="fill:url(#path1454_00000049916789860902896620000005927148790195379625_);" d="
			M819.1,13.1C416.4,13.1,89.9,339.4,89.8,742.1s326.3,729.2,728.9,729.3c227.8,0,442.6-106.4,580.5-287.7
			c60.2-111.2,18.8-250.2-92.4-310.4c-98.7-53.4-221.5-27.4-290.2,61.4l0,0c-100.4,114.6-274.7,126.2-389.3,25.8
			C512.7,860,501.2,685.7,601.6,571.1s274.7-126.2,389.3-25.8c6.7,5.8,13.1,12,19.2,18.5c74.1,103.8,218.4,127.8,322.2,53.7
			s127.8-218.4,53.7-322.2c-4.1-5.7-8.5-11.3-13.1-16.6c-2.3-3.6-4.9-6.9-7.8-10.1c-134.7-156.4-328.9-249-535.1-255.5H819.1z"/>
		
			<linearGradient id="path1456_00000132055898774006095710000002381633141968111545_" gradientUnits="userSpaceOnUse" x1="378.7839" y1="5281.4331" x2="1205.134" y2="6447.0298" gradientTransform="matrix(0.94 0 0 -0.94 108.7866 6342.5186)">
			<stop  offset="0" style="stop-color:#72C09F"/>
			<stop  offset="0.51" style="stop-color:#53706E"/>
			<stop  offset="1" style="stop-color:#4E143E"/>
		</linearGradient>
		
			<path id="path1456_00000009559337121778308370000002039656997600459178_" style="fill:url(#path1456_00000132055898774006095710000002381633141968111545_);" d="
			M118.8,808.4c-16.1,1-23.2,37.1-23.2,131.1c98.8,367.7,461.4,599.6,836.6,535.2c224.9-49.6,410-208.5,493.2-423.2
			c-11.9-117-110.5-205.9-228-205.9c-29.9,0.2-59.4,6.3-87,17.7c-27.8,20.3-56.4,40.8-85.6,61.3c-3.2,3.4-6.1,6.9-8.8,10.6l0,0
			c-36.7,42-85.4,71.9-139.5,85.6c-98.9,56.6-199.6,98.3-292.6,98.3C300.1,1119.2,167.4,805.4,118.8,808.4z"/>
		
			<linearGradient id="path1458_00000137095038183712744160000017215840904119260578_" gradientUnits="userSpaceOnUse" x1="399.9365" y1="6660.563" x2="645.7444" y2="5393.2095" gradientTransform="matrix(0.94 0 0 -0.94 108.2866 6338.3486)">
			<stop  offset="0" style="stop-color:#3E6B59"/>
			<stop  offset="0.1189" style="stop-color:#436E5D"/>
			<stop  offset="0.2573" style="stop-color:#517967"/>
			<stop  offset="0.4054" style="stop-color:#688978"/>
			<stop  offset="0.5604" style="stop-color:#89A190"/>
			<stop  offset="0.7207" style="stop-color:#B3BFAF"/>
			<stop  offset="0.8833" style="stop-color:#E6E3D5"/>
			<stop  offset="0.9132" style="stop-color:#F0EADC"/>
			<stop  offset="1" style="stop-color:#F0EADC"/>
		</linearGradient>
		
			<path id="path1458_00000158721914719015676900000007929729327102860947_" style="fill:url(#path1458_00000137095038183712744160000017215840904119260578_);" d="
			M567.3,112.9c-59.1,0-117.8,9.3-174,27.4C57,368.6-30.4,826.1,197.8,1162.3c1,1.5,2,3,3,4.4c252.6,202.4,621.5,161.7,823.9-91
			c52.2-65.1,89.9-140.7,110.5-221.6c-47.2,13.3-88.8,41.5-118.6,80.4l0,0c-100.4,114.6-274.7,126.2-389.3,25.8
			s-126.2-274.7-25.8-389.3s274.7-126.2,389.3-25.8c6.7,5.8,13.1,12,19.2,18.5c33.9,46.9,84.1,79.5,140.8,91.5
			C1123.7,355.8,872.6,112.9,567.3,112.9z"/>
		<path id="path1460_00000157286456377272607460000014813222354008229043_" class="st3" d="M1197.7,845.5
			c-70.9,0.1-137.8,33-181,89.1l0,0c-52.4,59.7-127.9,94-207.3,94.1c-13.7,0.1-27.3-0.9-40.8-3c-64,170.9,8.9,362.7,170.2,447.9
			c159.6-29,305.1-109.9,414-230.1c93.4-85.4,99.9-230.3,14.5-323.6c-43.5-47.6-105.1-74.7-169.7-74.5V845.5z"/>
		
			<linearGradient id="path1462_00000000919533758388440950000001145351663933756826_" gradientUnits="userSpaceOnUse" x1="-37.2593" y1="6124.0508" x2="890.8472" y2="6397.2007" gradientTransform="matrix(0.94 0 0 -0.94 104.6466 6342.5186)">
			<stop  offset="0" style="stop-color:#3E6B59"/>
			<stop  offset="0.36" style="stop-color:#3E6B59"/>
			<stop  offset="1" style="stop-color:#143629"/>
		</linearGradient>
		
			<path id="path1462_00000121248946663240987550000012081660993407381932_" style="fill:url(#path1462_00000000919533758388440950000001145351663933756826_);" d="
			M807.1,12.7c-266.9-0.1-512.9,144.2-643,377.2c1.8,221,162.8,408.5,381,443.6C500.5,687.8,582.4,533.6,728,489
			c100.4-30.7,209.6-1.8,281.6,74.7c0.9,1.2,1.6,2.4,2.6,3.5c46,0,56.6-30.6,56.6-161.5c-1.1-155.1-76.5-300.4-202.8-390.5
			C846.6,13.7,827.1,12.7,807.1,12.7z"/>
		<path id="path1466_00000093896585986346927210000016625566910122773432_" class="st5" d="M1429,432c0,127.8-103,231.5-230.1,231.5
			l0,0c-127.1,0-230.1-103.6-230.1-231.5s103-231.5,230.1-231.5S1429,304.1,1429,432L1429,432"/>
		<g>
			<g>
				<g>
					<g>
						<path class="st6" d="M668.4,723.3c-0.2-12.6,3.9-24.9,11.6-34.9l79,79.3c-10,7.7-22.2,11.8-34.7,11.6
							c-14.8-0.1-28.9-6-39.4-16.5C674.4,752.3,668.5,738.1,668.4,723.3z"/>
						<path class="st6" d="M903.3,779.2c7.4,0,14.7-1.4,21.6-4.2c6.8-2.8,13-7,18.3-12.2c5.2-5.2,9.4-11.5,12.2-18.3
							c2.8-6.9,4.3-14.2,4.2-21.6c0.1-12.6-3.9-24.9-11.6-34.9l-79.2,79.5C878.7,775.2,890.8,779.3,903.3,779.2z"/>
						<path class="st6" d="M964.4,671.8c12.2,14.4,18.9,32.6,18.9,51.4c0,21.2-8.4,41.5-23.4,56.5c-14.9,15-35.2,23.4-56.3,23.4
							c-18.7,0-36.8-6.6-51.1-18.7L813.7,822l-37.8-37.5c-14.3,12.1-32.4,18.7-51.1,18.7c-10.5,0-20.9-2-30.6-6
							c-9.7-4-18.5-9.9-25.9-17.3s-13.3-16.2-17.3-26c-4-9.7-6.1-20.1-6.1-30.7c0-18.8,6.6-36.9,18.6-51.3l-17.9-18l-17.1-17.4
							c-20.6,34-31.4,73-31.4,112.7c0,28.6,5.6,56.9,16.5,83.3c10.9,26.4,26.8,50.4,47,70.6c20.1,20.2,44,36.2,70.3,47.1
							c26.3,10.9,54.5,16.5,82.9,16.5c57.4,0,112.5-22.9,153.1-63.7c40.6-40.8,63.5-96,63.6-153.7c0.4-39.7-10.4-78.8-31-112.7
							L964.4,671.8z"/>
						<path class="st6" d="M970.7,599.2c-20.2-21.3-44.5-38.3-71.5-49.9c-26.9-11.6-56-17.6-85.3-17.5c-29.3,0-58.3,6-85.3,17.5
							s-51.3,28.6-71.5,49.9c-5.3,5.8-10.4,11.6-15.2,17.8l171.8,172.5l172-172.7C981.1,610.6,976.1,604.7,970.7,599.2L970.7,599.2z
							 M813.7,749.3L680.8,615.6c17.4-17.7,38.1-31.7,61-41.2s47.4-14.4,72.1-14.3c24.8-0.1,49.3,4.7,72.1,14.2
							c22.9,9.5,43.6,23.5,61,41.2L813.7,749.3z"/>
					</g>
				</g>
			</g>
		</g>
	</g>
</g>
</svg>
